<svg xmlns="http://www.w3.org/2000/svg" xmlns:xlink="http://www.w3.org/1999/xlink" viewBox="0 0 480 320">
  <defs>
    <linearGradient id="linear-gradient" x1="140.5266" x2="318.7099" y1="22.1566" y2="104.6488" gradientUnits="userSpaceOnUse">
      <stop offset=".0002" stop-color="#1098ff"/>
      <stop offset=".9996" stop-color="#40c4ff"/>
    </linearGradient>
    <linearGradient xlink:href="#linear-gradient" id="linear-gradient-2" x1="123.9869" x2="302.1702" y1="57.8824" y2="140.3746"/>
    <linearGradient xlink:href="#linear-gradient" id="linear-gradient-3" x1="109.922" x2="288.1053" y1="88.2626" y2="170.7549"/>
  </defs>
  <g>
    <path fill="#c6ccd7" d="M102.9855 273.537a4.89 4.89 0 0 0-2.2475-1.5487 8.1121 8.1121 0 0 0-2.6841-.5006 6.9532 6.9532 0 0 0-1.5253.1747 5.8746 5.8746 0 0 0-1.4848.5453 3.2311 3.2311 0 0 0-1.1333.9821 2.7166 2.7166 0 0 0 .6092 3.6193 9.8238 9.8238 0 0 0 2.6394 1.2654q1.5947.5241 3.4255 1.0481a14.1626 14.1626 0 0 1 3.4255 1.4827 8.1426 8.1426 0 0 1 2.6394 2.5755 7.8368 7.8368 0 0 1 1.046 4.3181 9.9282 9.9282 0 0 1-.9586 4.4927 9.1392 9.1392 0 0 1-2.5968 3.1869 11.0442 11.0442 0 0 1-3.7941 1.8747 16.7013 16.7013 0 0 1-4.5609.6114 16.5151 16.5151 0 0 1-5.5835-.9161 13.9812 13.9812 0 0 1-4.7995-2.9674l4.8422-5.3215a7.054 7.054 0 0 0 2.6394 2.158 7.417 7.417 0 0 0 4.9742.5688 5.5223 5.5223 0 0 0 1.5274-.59 3.3171 3.3171 0 0 0 1.0907-1.0034 2.4958 2.4958 0 0 0 .4154-1.44 2.6154 2.6154 0 0 0-1.0694-2.203 9.8864 9.8864 0 0 0-2.6842-1.374q-1.6136-.5655-3.4894-1.1354a15.6668 15.6668 0 0 1-3.4915-1.5253 8.4275 8.4275 0 0 1-2.682-2.5308 7.2343 7.2343 0 0 1-1.0694-4.1455 9.286 9.286 0 0 1 .982-4.3628 9.46 9.46 0 0 1 2.6182-3.14 11.375 11.375 0 0 1 3.7727-1.898 15.4518 15.4518 0 0 1 4.4075-.6327 17.321 17.321 0 0 1 5.06.7413 11.6631 11.6631 0 0 1 4.4075 2.486ZM121.2291 281.434a17.4547 17.4547 0 0 1 1.2441-6.719 14.7347 14.7347 0 0 1 3.4681-5.1254 15.2743 15.2743 0 0 1 5.2788-3.2508 20.2256 20.2256 0 0 1 13.3505 0 15.2724 15.2724 0 0 1 5.2788 3.2508 14.7035 14.7035 0 0 1 3.4681 5.1254 18.7654 18.7654 0 0 1 0 13.4379 14.7121 14.7121 0 0 1-3.4681 5.1275 15.2363 15.2363 0 0 1-5.2788 3.2487 20.1886 20.1886 0 0 1-13.3505 0 15.2381 15.2381 0 0 1-5.2788-3.2487 14.7433 14.7433 0 0 1-3.4681-5.1275 17.447 17.447 0 0 1-1.2441-6.7189Zm7.0683 0a11.3043 11.3043 0 0 0 .6774 3.9921 9.1283 9.1283 0 0 0 1.9407 3.1422 8.8689 8.8689 0 0 0 3.0314 2.0727 10.885 10.885 0 0 0 7.897 0 8.8675 8.8675 0 0 0 3.0313-2.0727 9.1667 9.1667 0 0 0 1.9429-3.1422 12.0686 12.0686 0 0 0 0-7.9609 9.1 9.1 0 0 0-1.9429-3.1634 8.8678 8.8678 0 0 0-3.0313-2.0728 10.8864 10.8864 0 0 0-7.897 0 8.8691 8.8691 0 0 0-3.0314 2.0728 9.0627 9.0627 0 0 0-1.9407 3.1634 11.36 11.36 0 0 0-.6774 3.9688ZM168.0952 265.9894h20.7234v6.2843h-13.9171v6.2822h12.8711v6.2822h-12.8711v12.04h-6.8063ZM214.2078 272.0117h-8.813v-6.0223h24.4322v6.0223h-8.813v24.8668h-6.8062ZM244.2143 265.9894h7.4176l4.9295 19.8074h.0873l6.4569-19.8074h6.3244l6.4143 20.3314h.0873l5.1915-20.3314h6.8936l-9.03 30.8891h-6.0649l-6.8062-21.3774h-.0874l-6.8062 21.3774h-5.8455ZM310.62 265.9894h5.6282l13.4378 30.8891h-7.6775l-2.6629-6.5442h-11.9975l-2.5734 6.5442h-7.5028Zm2.6181 8.9877-3.7514 9.599h7.5476ZM344.868 265.9894h11.953a21.1432 21.1432 0 0 1 4.4715.458 10.6575 10.6575 0 0 1 3.7088 1.5274 7.6437 7.6437 0 0 1 2.5307 2.88 9.7677 9.7677 0 0 1 .9374 4.5162 9.0709 9.0709 0 0 1-1.7 5.5621 7.6612 7.6612 0 0 1-4.9742 2.9015l7.8522 13.0437h-8.159l-6.4568-12.3471h-3.36v12.3471h-6.8036Zm6.8041 12.7838h4.0156q.9138 0 1.9407-.066a6.0624 6.0624 0 0 0 1.8533-.392 3.19 3.19 0 0 0 1.374-1.0246 3.1223 3.1223 0 0 0 .5454-1.9642 3.2663 3.2663 0 0 0-.4793-1.8767 3.1981 3.1981 0 0 0-1.2207-1.0673 5.4514 5.4514 0 0 0-1.7021-.5028 13.8612 13.8612 0 0 0-1.8767-.13h-4.45ZM387.2637 265.9894h20.9854v6.2843H394.07v5.7582h13.3952v6.2822H394.07v6.2822h14.9652v6.2822h-21.7715ZM59.9364 183.2905H37.1893v-13.4059h61.9464v7.425a5.9808 5.9808 0 0 1-5.9809 5.9809H82.362a5.9756 5.9756 0 0 0-5.9755 5.9756V240.97h-16.45ZM174.1813 169.8846V240.97h-16.4522v-29.1465h-26.3166a5.9763 5.9763 0 0 0-5.9763 5.9763v23.17h-16.45v-71.0852h16.45v28.0282h26.3222a5.9708 5.9708 0 0 0 5.9707-5.9708v-22.0574ZM198.0389 169.8846h10.4655V240.97h-16.45v-65.1008a5.9846 5.9846 0 0 1 5.9845-5.9846ZM271.6693 240.97l-13.7105-19.8031h-8.5779a6.5535 6.5535 0 0 0-6.5535 6.5535v7.28a5.9693 5.9693 0 0 1-5.9694 5.9694h-10.4806v-71.0852h30.77a39.527 39.527 0 0 1 16.3989 3.1465 24.38 24.38 0 0 1 10.7153 8.9386 24.6263 24.6263 0 0 1 3.7557 13.7084 23.155 23.155 0 0 1-14.6223 22.4425l12.6642 18.15a2.9889 2.9889 0 0 1-2.4512 4.6992Zm-4.1647-54.4819q-3.86-3.1987-11.2713-3.1976h-13.4059v24.7773h13.4059q7.41 0 11.2713-3.2487 3.8569-3.2529 3.86-9.141.0001-5.9915-3.86-9.19ZM302.03 175.8548a5.97 5.97 0 0 1 5.97-5.97h26.323a45.3944 45.3944 0 0 1 20.4614 4.4161 33.0858 33.0858 0 0 1 13.8106 12.4409 37.9044 37.9044 0 0 1 0 37.3693 33.0435 33.0435 0 0 1-13.8106 12.4409 45.3657 45.3657 0 0 1-20.4614 4.418H302.03Zm31.4791 51.6092q10.6632 0 17.01-5.9413t6.3483-16.0943q0-10.155-6.3483-16.0964-6.346-5.9434-17.01-5.9414H318.48v44.0734ZM394.3277 208.9255a22.9821 22.9821 0 0 1-7.3729-3.1741l3.6875-8.2825a25.11 25.11 0 0 0 13.1013 3.9154q6.4642 0 6.4654-3.2338a2.6772 2.6772 0 0 0-1.8427-2.5222 33.8182 33.8182 0 0 0-5.9286-1.73 56.7237 56.7237 0 0 1-7.4858-2.0706 12.6089 12.6089 0 0 1-5.1617-3.5448 9.5882 9.5882 0 0 1-2.1537-6.5805 11.3955 11.3955 0 0 1 1.9833-6.5506 13.2873 13.2873 0 0 1 5.9286-4.6227 24.4041 24.4041 0 0 1 9.6693-1.7 34.122 34.122 0 0 1 7.7138.8776 23.6773 23.6773 0 0 1 6.6933 2.5819l-2.1555 5.1917a3.2667 3.2667 0 0 1-4.2625 1.7479 21.3613 21.3613 0 0 0-8.0466-1.665 9.21 9.21 0 0 0-4.8762.9927 2.9741 2.9741 0 0 0-1.5317 2.58 2.5591 2.5591 0 0 0 1.815 2.3816 32.6748 32.6748 0 0 0 5.8413 1.6446 54.8731 54.8731 0 0 1 7.5156 2.0706 12.994 12.994 0 0 1 5.1617 3.5171 9.3944 9.3944 0 0 1 2.1835 6.5485 11.177 11.177 0 0 1-1.9854 6.4676 13.5636 13.5636 0 0 1-5.9563 4.6227 24.0956 24.0956 0 0 1-9.6416 1.73 36.5851 36.5851 0 0 1-9.3584-1.1931ZM434.8819 178.5264H422.686v-5.6272a3.2774 3.2774 0 0 1 3.2774-3.2774h32.2855v8.9046h-12.1383v30.7975h-11.2287ZM386.9548 223.1012h70.4931v8.7256h-70.4931z"/>
    <path fill="url(#linear-gradient)" d="M244.0354 40.0085 347.696 58.7039v56.2578l-103.6606 9.8674V40.0085m-10.9425-19.6259a6.55 6.55 0 0 0-6.534 6.5492V144.048l132.6865-12.63a6.5473 6.5473 0 0 0 5.927-6.518V44.0976L234.2683 20.4885a6.6118 6.6118 0 0 0-1.1754-.1059Z"/>
    <path fill="url(#linear-gradient-2)" d="M130.1091 64.0311a3.2572 3.2572 0 0 0-2.2949 3.1117v9.7179l33.2-6.1185v30.9429a6.5628 6.5628 0 0 1-7.1981 6.5319l-26.0018-2.529v11.3076l73.2284 11.9513a6.56 6.56 0 0 0 7.6164-6.4741V39.741Z"/>
    <path fill="url(#linear-gradient-3)" d="M101.6694 81.6787a3.28 3.28 0 0 0-2.6854 3.2256v17.98l28.83 2.804V76.8607Z"/>
  </g>
</svg>
