<?xml version="1.0" standalone="no"?>
<!DOCTYPE svg PUBLIC "-//W3C//DTD SVG 20010904//EN"
 "http://www.w3.org/TR/2001/REC-SVG-20010904/DTD/svg10.dtd">
<svg version="1.0" xmlns="http://www.w3.org/2000/svg"
 width="2134.000000pt" height="2134.000000pt" viewBox="0 0 2134.000000 2134.000000"
 preserveAspectRatio="xMidYMid meet">
<metadata>
Created by potrace 1.14, written by Peter Selinger 2001-2017
</metadata>
<g transform="translate(0.000000,2134.000000) scale(0.100000,-0.100000)"
fill="#000000" stroke="none">
<path d="M11760 18307 c-3 -3 -25 -8 -50 -11 -142 -18 -328 -118 -440 -238
-90 -96 -168 -249 -195 -383 -12 -60 -14 -1129 -14 -7136 l-1 -7066 117 24
c65 13 129 26 143 28 69 13 87 17 144 30 33 7 77 16 96 19 19 3 91 17 160 31
69 14 135 27 148 30 12 2 30 6 40 9 9 3 35 7 57 11 22 3 47 7 55 10 14 4 32 8
98 20 30 6 262 52 302 60 14 3 41 8 60 11 19 3 43 7 52 10 22 6 55 13 98 20
19 3 51 9 70 14 19 5 46 11 60 13 14 3 210 42 435 87 226 45 421 84 435 87 31
5 217 42 245 48 20 5 256 52 305 61 14 3 147 29 295 59 149 30 281 56 295 59
26 5 717 143 760 152 14 2 36 7 50 9 14 2 36 7 50 10 92 19 160 32 200 40 14
2 104 20 200 40 96 20 187 38 203 40 15 3 60 12 100 21 39 8 88 17 107 20 19
3 43 7 52 10 10 3 30 7 45 10 16 3 35 7 43 9 8 2 29 7 45 9 17 3 86 17 155 31
69 14 141 28 160 31 19 3 43 7 52 10 10 3 30 7 45 10 16 2 57 11 93 19 36 8
81 17 100 20 19 3 91 17 160 31 69 14 136 28 150 30 14 3 59 12 100 21 41 8
86 17 100 20 14 2 149 29 300 59 151 31 284 57 295 59 11 1 56 10 100 20 44 9
95 19 114 21 19 3 38 7 42 10 5 3 30 7 56 10 351 40 624 279 702 614 18 80 19
202 19 4971 l0 4890 -31 14 c-40 18 -254 101 -327 127 -30 11 -64 24 -75 29
-11 5 -51 20 -90 34 -38 14 -79 30 -90 35 -11 4 -69 27 -130 50 -60 23 -137
52 -170 65 -33 13 -127 49 -210 80 -82 31 -170 65 -195 75 -25 11 -142 56
-260 100 -118 45 -242 92 -275 105 -33 13 -672 259 -1420 545 -1807 693 -2069
794 -2205 847 -63 24 -137 53 -165 62 -27 10 -90 34 -140 54 -49 19 -157 60
-240 92 -82 31 -202 77 -265 102 -63 25 -149 58 -190 73 -126 46 -374 141
-395 151 -26 12 -404 156 -475 181 -52 19 -248 37 -260 25z m1705 -2470 c83
-30 161 -60 175 -65 14 -6 149 -56 300 -112 151 -56 282 -104 290 -107 8 -4
17 -7 20 -8 3 -1 12 -5 20 -8 8 -3 157 -59 330 -122 173 -64 331 -123 350
-131 29 -11 407 -152 1125 -419 143 -53 677 -252 822 -306 72 -27 134 -49 137
-49 4 0 25 -9 49 -19 23 -10 102 -40 175 -67 72 -26 133 -50 133 -53 1 -3 2
-1760 3 -3903 l1 -3897 -45 -10 c-65 -14 -112 -24 -135 -26 -17 -3 -85 -15
-200 -38 -23 -5 -88 -17 -125 -23 -14 -3 -133 -25 -265 -50 -132 -25 -251 -47
-265 -49 -14 -2 -113 -20 -220 -40 -107 -20 -206 -39 -220 -41 -14 -3 -59 -11
-100 -19 -41 -8 -93 -18 -115 -21 -22 -3 -85 -15 -140 -26 -55 -10 -109 -21
-120 -22 -11 -2 -36 -7 -55 -10 -19 -4 -73 -14 -120 -22 -117 -22 -121 -23
-153 -30 -16 -3 -38 -7 -50 -9 -31 -4 -143 -24 -197 -35 -25 -5 -97 -19 -160
-30 -63 -11 -135 -25 -160 -31 -25 -5 -58 -11 -75 -13 -16 -2 -91 -16 -165
-30 -74 -14 -146 -27 -160 -30 -14 -2 -101 -18 -195 -36 -93 -18 -181 -34
-195 -36 -14 -3 -48 -9 -76 -15 -28 -5 -64 -12 -80 -15 -16 -2 -54 -9 -84 -15
-30 -6 -66 -12 -80 -15 -14 -2 -59 -11 -100 -18 -104 -20 -163 -30 -174 -31
-7 0 -13 10054 -7 10152 1 9 25 4 79 -16 42 -16 145 -53 227 -84z"/>
<path d="M8939 15811 c-196 -97 -520 -256 -720 -355 -200 -98 -526 -259 -725
-357 -198 -98 -484 -238 -635 -312 -151 -74 -440 -217 -644 -317 -399 -197
-839 -413 -1300 -640 -159 -78 -468 -230 -685 -337 -404 -200 -756 -372 -891
-436 -81 -39 -148 -99 -186 -167 -49 -87 -50 -105 -50 -753 0 -334 2 -607 4
-607 3 0 19 6 36 14 26 12 722 266 1417 517 58 21 130 47 160 59 30 12 60 22
65 24 13 2 244 85 270 96 22 10 434 160 745 272 107 38 222 80 255 93 51 19
95 35 115 40 3 1 12 5 20 8 8 4 107 40 220 81 113 41 212 77 222 81 15 6 16
-155 16 -2269 0 -1852 -3 -2288 -13 -2345 -64 -332 -312 -578 -645 -640 -55
-10 -213 -8 -260 3 -50 12 -431 87 -510 101 -19 3 -114 22 -210 41 -96 19
-191 37 -210 40 -19 3 -43 7 -52 10 -10 3 -30 7 -45 10 -16 3 -93 18 -173 34
-80 16 -158 32 -175 34 -16 3 -75 14 -130 25 -137 27 -624 122 -655 128 -70
12 -437 85 -451 89 -14 4 -16 -56 -17 -658 0 -365 1 -673 3 -684 3 -15 15 -23
37 -28 18 -3 74 -17 123 -31 184 -51 460 -126 475 -130 8 -1 148 -39 310 -83
162 -44 329 -90 370 -101 130 -34 483 -130 535 -145 28 -8 120 -33 205 -56 85
-22 178 -47 205 -55 89 -25 395 -108 570 -155 86 -23 155 -42 238 -64 28 -8
286 -78 572 -155 286 -77 534 -145 550 -150 17 -5 82 -23 145 -40 63 -17 174
-47 245 -67 72 -19 137 -37 145 -39 17 -4 82 -21 370 -100 178 -49 217 -56
300 -57 129 -1 204 13 315 59 212 88 387 280 449 495 9 30 20 66 24 79 7 23
15 7731 10 9300 l-3 775 -356 -175z"/>
<path d="M3045 11519 c-16 -6 -39 -14 -50 -19 -11 -5 -36 -13 -55 -18 -19 -5
-172 -53 -340 -106 -317 -101 -566 -180 -780 -248 -69 -21 -143 -45 -165 -53
-34 -12 -261 -83 -420 -131 -107 -33 -198 -115 -246 -224 l-24 -55 -3 -1127
c-2 -1004 -1 -1128 13 -1129 8 -1 18 -2 23 -3 7 -2 65 -11 141 -23 18 -2 43
-6 55 -9 11 -2 68 -11 126 -19 122 -18 156 -24 190 -30 14 -3 39 -7 55 -9 51
-7 119 -18 140 -22 10 -2 37 -6 60 -9 22 -3 78 -12 125 -20 47 -8 101 -16 120
-19 105 -15 164 -25 230 -36 30 -5 73 -12 95 -15 23 -3 50 -7 60 -9 11 -2 56
-9 100 -16 44 -7 89 -14 100 -17 11 -2 36 -6 56 -7 20 -2 50 -6 65 -10 16 -3
47 -8 69 -11 22 -3 87 -13 145 -23 58 -10 121 -18 140 -18 l35 1 0 1720 c0
1520 -2 1720 -15 1722 -8 1 -28 -3 -45 -8z"/>
</g>
</svg>
