<svg xmlns="http://www.w3.org/2000/svg" xml:space="preserve" viewBox="0 0 512 512">
  <g id="Layer_2">
    <path fill="#232934" d="M42.9 0H512v468.9c0 23.8-19.3 43.1-43.1 43.1H0V42.9C0 19.2 19.2 0 42.9 0z"/>
    <linearGradient id="SVGID_1_" x1="122.2499" x2="468.3842" y1="376.8851" y2="171.211" gradientUnits="userSpaceOnUse">
      <stop offset=".00020689" stop-color="#1098ff"/>
      <stop offset=".9996" stop-color="#40c4ff"/>
    </linearGradient>
    <path fill="url(#SVGID_1_)" d="m315.7 129.2 101.8 37.9v187.4l-101.8 18.9V129.2m-31.5-56.4c-10.2 0-18.8 8.3-18.8 18.9v337.1l182.3-36.4c9.7-.9 17.1-9 17.1-18.8V141L287.7 73c-1.3-.1-2.4-.2-3.5-.2z"/>
    <linearGradient id="SVGID_00000176028814724268990440000005982099007756154009_" x1="90.8736" x2="437.0079" y1="324.081" y2="118.407" gradientUnits="userSpaceOnUse">
      <stop offset=".00020689" stop-color="#1098ff"/>
      <stop offset=".9996" stop-color="#40c4ff"/>
    </linearGradient>
    <path fill="url(#SVGID_00000176028814724268990440000005982099007756154009_)" d="M81 198.4c-3.9 1.2-6.6 4.8-6.6 9v28l85.1-30.9V312c0 11.2-9.6 19.9-20.7 18.8l-64.3-12.5v32.5l126.7 34.4c11.5 1.9 21.9-7 21.9-18.6V128.5L81 198.4z"/>
    <linearGradient id="SVGID_00000090998179261656253750000001422595647840153229_" x1="63.0149" x2="409.1492" y1="277.1968" y2="71.5228" gradientUnits="userSpaceOnUse">
      <stop offset=".00020689" stop-color="#1098ff"/>
      <stop offset=".9996" stop-color="#40c4ff"/>
    </linearGradient>
    <path fill="url(#SVGID_00000090998179261656253750000001422595647840153229_)" d="M30.7 249.2c-4.5.8-7.7 4.7-7.7 9.3v51.8l51.5 8.1v-83l-43.8 13.8z"/>
  </g>
</svg>
